<svg width="45" height="63" viewBox="0 0 45 63" fill="none" xmlns="http://www.w3.org/2000/svg">
<path d="M41.5314 4.92188L29.5713 4.92532L28.2483 0.608836C28.1944 0.432719 28.0854 0.278539 27.9374 0.168951C27.7893 0.0593628 27.61 0.000145466 27.4259 5.4004e-08H17.5742C17.3899 -6.52265e-05 17.2104 0.0590549 17.0621 0.168658C16.9139 0.278262 16.8048 0.432558 16.7508 0.608836L15.4278 4.92532L3.46863 4.92188C2.58783 4.92292 1.7434 5.27327 1.12058 5.89609C0.497763 6.51891 0.147404 7.36334 0.146362 8.24414V59.6777C0.147404 60.5585 0.497763 61.403 1.12058 62.0258C1.7434 62.6486 2.58783 62.999 3.46863 63H41.5314C42.4122 62.999 43.2567 62.6486 43.8795 62.0258C44.5023 61.403 44.8527 60.5585 44.8537 59.6777V8.24414C44.8527 7.36334 44.5023 6.51891 43.8795 5.89609C43.2567 5.27327 42.4122 4.92292 41.5314 4.92188ZM38.2087 11.5664V56.3555H6.79138V11.5664H38.2087ZM16.0642 6.64847C16.2488 6.64885 16.4286 6.58988 16.5772 6.48025C16.7257 6.37062 16.8351 6.21615 16.8891 6.03963L18.2111 1.72266H26.789L28.111 6.03963C28.1649 6.21591 28.2741 6.37021 28.4223 6.47981C28.5705 6.58941 28.75 6.64853 28.9344 6.64847L32.9984 6.64552V9.84375H12.0002V6.64453L16.0642 6.64847ZM43.1311 59.6777C43.1305 60.1018 42.9618 60.5084 42.662 60.8083C42.3621 61.1081 41.9555 61.2768 41.5314 61.2773H3.46863C3.04454 61.2768 2.63798 61.1081 2.33811 60.8083C2.03824 60.5084 1.86954 60.1018 1.86902 59.6777V8.24414C1.86954 7.82006 2.03824 7.41349 2.33811 7.11362C2.63798 6.81375 3.04454 6.64505 3.46863 6.64453H10.2775V9.84375H5.93006C5.70162 9.84375 5.48254 9.9345 5.32101 10.096C5.15948 10.2576 5.06873 10.4766 5.06873 10.7051V57.2168C5.06873 57.4452 5.15948 57.6643 5.32101 57.8258C5.48254 57.9874 5.70162 58.0781 5.93006 58.0781H39.07C39.2985 58.0781 39.5175 57.9874 39.6791 57.8258C39.8406 57.6643 39.9313 57.4452 39.9313 57.2168V10.7051C39.9313 10.4766 39.8406 10.2576 39.6791 10.096C39.5175 9.9345 39.2985 9.84375 39.07 9.84375H34.7225V6.64453H41.5314C41.9555 6.64505 42.3621 6.81375 42.662 7.11362C42.9618 7.41349 43.1305 7.82006 43.1311 8.24414V59.6777Z" fill="#FF2625"/>
</svg>
